<svg width="44" height="44" viewBox="0 0 44 44" fill="none" xmlns="http://www.w3.org/2000/svg">
<path d="M22 44C34.1503 44 44 34.1503 44 22C44 9.84973 34.1503 0 22 0C9.84973 0 0 9.84973 0 22C0 34.1503 9.84973 44 22 44Z" fill="white"/>
<mask id="mask0" mask-type="alpha" maskUnits="userSpaceOnUse" x="0" y="0" width="44" height="44">
<path d="M22 44C34.1503 44 44 34.1503 44 22C44 9.84973 34.1503 0 22 0C9.84973 0 0 9.84973 0 22C0 34.1503 9.84973 44 22 44Z" fill="white"/>
</mask>
<g mask="url(#mask0)">
<path fill-rule="evenodd" clip-rule="evenodd" d="M44 22C44 34.1503 34.1503 44 22 44C9.84974 44 0 34.1503 0 22C0 9.84974 9.84974 0 22 0C34.1503 0 44 9.84974 44 22ZM16.0479 10.7616L16.0315 10.7571C16.0075 10.7812 15.9917 10.7969 15.9931 10.7985C15.9943 10.8 16.0102 10.7892 16.0479 10.7616ZM16.1906 10.7996C16.1431 10.7872 16.0955 10.7745 16.0479 10.7616C16.0865 10.7333 16.148 10.6872 16.2397 10.6183C16.2234 10.6783 16.207 10.7388 16.1906 10.7996ZM16.1906 10.7996C16.5193 10.8854 16.848 10.9601 17.1766 11.0347C17.5584 11.1215 17.9401 11.2082 18.3218 11.3124C18.7035 11.4165 19.0852 11.5032 19.4669 11.59C19.8486 11.6767 20.2303 11.7635 20.612 11.8676C20.8202 11.937 20.8896 11.8676 20.959 11.6594C21.0978 11.0695 21.2366 10.4969 21.3754 9.92435C21.5142 9.35179 21.653 8.77923 21.7918 8.18932C21.8612 7.98112 21.9306 7.91172 22.1388 7.98112C22.8328 8.18932 23.4574 8.32812 24.1514 8.46692C24.3596 8.53633 24.3596 8.60573 24.2902 8.74453C24.1514 9.29977 24.0126 9.87236 23.8738 10.445C23.735 11.0175 23.5962 11.59 23.4574 12.1452C23.4574 12.2146 23.4574 12.284 23.388 12.4228C23.6656 12.4922 23.9606 12.5616 24.2555 12.631L24.2557 12.631C24.5506 12.7004 24.8455 12.7698 25.123 12.8392C25.1693 12.8392 25.2156 12.7775 25.2618 12.7158C25.285 12.6849 25.3081 12.6541 25.3312 12.631C25.5394 11.7288 25.7476 10.8959 26.0252 9.99374L26.2334 9.16093C26.2334 9.02213 26.3028 8.95273 26.4416 9.02213C26.8366 9.14063 27.2317 9.23665 27.6395 9.33578L27.6395 9.33579L27.6396 9.3358L27.6399 9.33588C27.9484 9.41089 28.2643 9.48767 28.5931 9.57733C28.6278 9.57733 28.6451 9.59468 28.6625 9.61203C28.6798 9.62938 28.6972 9.64674 28.7319 9.64674C28.5237 10.5489 28.3155 11.3817 28.1073 12.2145L28.1072 12.2146L28.1072 12.2146C28.0378 12.5616 27.9684 12.9086 27.8296 13.2556C27.7602 13.4638 27.8296 13.5332 28.0378 13.6026L30.3281 14.6436C31.0221 15.06 31.6467 15.6152 32.1325 16.3092C32.7571 17.3502 32.8265 18.4606 32.5489 19.571C32.3407 20.3344 32.0631 21.0284 31.5079 21.5836C31.0915 22 30.5363 22.2776 29.9811 22.4859C29.9523 22.4859 29.9236 22.4978 29.8899 22.5117C29.8423 22.5314 29.7848 22.5553 29.7035 22.5553C29.8423 22.6594 29.9811 22.7461 30.1199 22.8329C30.2587 22.9196 30.3975 23.0064 30.5363 23.1105C31.3691 23.7351 31.9243 24.4985 32.2019 25.4701C32.3407 26.2335 32.2713 27.0663 32.0631 27.8297C31.7855 28.8013 31.4385 29.6341 30.8139 30.3975C30.0505 31.2997 29.0789 31.7855 27.9684 31.9243C26.511 32.1325 25.123 31.9937 23.735 31.7855C23.5268 31.7161 23.388 31.7855 23.3186 31.9937C23.1798 32.5489 23.041 33.1214 22.9022 33.694C22.7634 34.2666 22.6246 34.8391 22.4858 35.3944L22.4772 35.4291C22.4158 35.6776 22.4015 35.7354 22.0694 35.6026C21.7571 35.5332 21.4274 35.4464 21.0978 35.3597C20.7681 35.2729 20.4385 35.1862 20.1262 35.1168C19.918 35.0474 19.918 34.978 19.9874 34.8392C20.265 33.6594 20.5426 32.4795 20.8896 31.3691C20.8896 31.3304 20.895 31.297 20.8998 31.2676C20.9121 31.1916 20.9202 31.1416 20.8202 31.0915L20.82 31.0915C20.2649 30.9527 19.7097 30.8139 19.0852 30.6751C19.0158 30.9874 18.929 31.2997 18.8423 31.612C18.7555 31.9243 18.6688 32.2366 18.5994 32.5489C18.53 32.8612 18.4432 33.1735 18.3565 33.4858C18.2697 33.7981 18.183 34.1105 18.1136 34.4228C18.1053 34.4392 18.0981 34.4547 18.0913 34.4691L18.0913 34.4692C18.0412 34.5761 18.0194 34.6227 17.836 34.5616C17.1419 34.3534 16.4479 34.2146 15.7539 34.0758C15.5457 34.0064 15.5457 33.937 15.6151 33.7982C15.8927 32.6183 16.1703 31.4385 16.5173 30.3281C16.5173 30.2994 16.5292 30.2706 16.5432 30.2369C16.5629 30.1893 16.5867 30.1318 16.5867 30.0505C14.9905 29.6341 13.3943 29.2177 11.7287 28.8013C11.7981 28.6625 11.8501 28.5411 11.9022 28.4196L11.9022 28.4196C11.9543 28.2982 12.0063 28.1767 12.0757 28.0379C12.3533 27.4133 12.6309 26.7887 12.8391 26.2335C12.9085 26.0253 12.9779 26.0253 13.1861 26.0253C13.6719 26.1641 14.2271 26.3029 14.7129 26.3723C15.2681 26.5111 15.6845 26.2335 15.7539 25.7477C16.6561 22.2082 17.5584 18.6688 18.3912 15.06C18.53 14.5048 18.183 13.8802 17.5584 13.672C17.0563 13.5046 16.5542 13.3821 16.0881 13.2684C15.9744 13.2406 15.8628 13.2134 15.7539 13.1862C15.6151 13.1862 15.5457 13.1168 15.6151 12.978C15.7192 12.5963 15.8233 12.1972 15.9274 11.7982C16.0152 11.4618 16.1029 11.1255 16.1906 10.7996ZM19.571 27.8989C19.6404 27.8989 19.7098 27.9683 19.7098 27.9683C19.8837 28.0118 20.0593 28.057 20.2363 28.1025C21.1897 28.3478 22.1848 28.6038 23.1798 28.6623C24.0126 28.7317 24.776 28.7317 25.5394 28.4541C26.858 28.0377 27.4133 26.3027 26.6498 25.1923C26.3028 24.6371 25.7476 24.2901 25.1924 23.9431C23.9799 23.2695 22.5712 22.9881 21.2203 22.7183L21.0978 22.6939C20.908 22.6306 20.8912 22.6827 20.8372 22.85L20.8372 22.85C20.8319 22.8663 20.8263 22.8836 20.8202 22.9021C20.7508 23.2491 20.664 23.5787 20.5773 23.9084C20.4905 24.238 20.4038 24.5677 20.3344 24.9147C20.1762 25.4683 20.0406 26.0219 19.9018 26.5884L19.9018 26.5884C19.797 27.0161 19.6904 27.4511 19.571 27.8989ZM26.164 20.6812C25.8864 20.7506 25.5394 20.82 25.4006 20.82C24.5952 20.82 23.8993 20.7105 23.1805 20.5973C22.9084 20.5545 22.6329 20.5111 22.347 20.473C22.2082 20.4383 22.0867 20.4036 21.9653 20.3689C21.8438 20.3342 21.7224 20.2995 21.5836 20.2648C21.4448 20.1954 21.3754 20.126 21.4448 19.9872C21.8612 18.5298 22.2082 17.1418 22.5552 15.6844C22.6246 15.4762 22.694 15.4068 22.9022 15.4762C23.1089 15.5313 23.3128 15.5837 23.5146 15.6355C24.329 15.8446 25.1077 16.0446 25.8864 16.3784C26.511 16.656 27.1356 17.0724 27.4826 17.697C28.1766 18.8768 27.4826 20.4036 26.164 20.6812Z" fill="#F5B300"/>
</g>
</svg>
