<svg width="40" height="40" xmlns="http://www.w3.org/2000/svg">

 <mask height="29" width="40" y="0" x="656" maskUnits="userSpaceOnUse" id="mask0">
  <path id="svg_1" fill="white" d="m656.152,0.63318l39.227,0l0,27.53882l-39.227,0l0,-27.53882l0,0z" clip-rule="evenodd" fill-rule="evenodd"/>
 </mask>
 <mask height="1" width="1" y="15" x="656" maskUnits="userSpaceOnUse" id="mask1">
  <path id="svg_2" fill="white" d="m656.138,15.361l0,0.6061l0.689,0l0,-0.6061l-0.689,0l0,0z" clip-rule="evenodd" fill-rule="evenodd"/>
 </mask>
 <mask height="2" width="1" y="15" x="656" maskUnits="userSpaceOnUse" id="mask2">
  <path id="svg_3" fill="white" d="m656.138,15.63l0,0.6061l0.689,0l0,-0.6061l-0.689,0l0,0z" clip-rule="evenodd" fill-rule="evenodd"/>
 </mask>
 <g>
  <title>background</title>
  <rect fill="none" id="canvas_background" height="42" width="42" y="-1" x="-1"/>
 </g>
 <g>
  <title>Layer 1</title>
  <g id="svg_30" mask="url(#mask1)">
   <path id="svg_31" fill="#B7D4F1" d="m656.138,15.361c0.042,0.0885 0.016,0.18 0.019,0.2709c-0.008,0.0122 -0.014,0.0115 -0.019,-0.0018l0,-0.2691z" clip-rule="evenodd" fill-rule="evenodd"/>
  </g>
  <g id="svg_32" mask="url(#mask2)">
   <path id="svg_33" fill="#E4EFFA" d="m656.138,15.63c0.007,0.0006 0.013,0.0012 0.019,0.0018c-0.001,0.0764 -0.001,0.1528 -0.001,0.2297c-0.006,0 -0.012,-0.0006 -0.018,-0.0012l0,-0.2303z" clip-rule="evenodd" fill-rule="evenodd"/>
  </g>
  <path id="svg_34" fill="#95C1EB" d="m687.403,0.64894c0.001,-0.00546 0.002,-0.01091 0.004,-0.01576l0.174,0c-0.056,0.02727 -0.117,0.02121 -0.178,0.01576z" clip-rule="evenodd" fill-rule="evenodd"/>
  <path id="svg_35" fill="#97C2EB" d="m688.261,0.64894c-0.06,0.00303 -0.121,0.01091 -0.178,-0.01576l0.176,0c0.015,0.00364 0.016,0.00909 0.002,0.01576z" clip-rule="evenodd" fill-rule="evenodd"/>
  <path id="svg_36" fill="#CBE0F5" d="m688.261,0.64894l-0.002,-0.01576l0.109,0c0,0.00485 0,0.01091 0.001,0.01576c-0.037,0 -0.072,0 -0.108,0z" clip-rule="evenodd" fill-rule="evenodd"/>
  <g id="svg_46">
   <path id="svg_40" fill="#006859" d="m19.812,40.0625c10.943,0 19.813,-8.8704 19.813,-19.8125c0,-10.94214 -8.87,-19.8125 -19.813,-19.8125c-10.942,0 -19.812,8.87036 -19.812,19.8125c0,10.9421 8.87,19.8125 19.812,19.8125z"/>
   <path id="svg_41" fill="white" d="m24.5,16.5l-8.125,4.1875l0,-4.25l9.25,-5.0625l-1.187,-2.125l-8.063,4.4375l0,-3.8125l-2.375,0l0,21.3125l2.375,0l0,-7.75l9.25,-4.8125l-1.125,-2.125z"/>
  </g>
 </g>
</svg>