<svg width="41" height="41" xmlns="http://www.w3.org/2000/svg">

 <mask height="29" width="40" y="0" x="656" maskUnits="userSpaceOnUse" id="mask0">
  <path id="svg_1" fill="white" d="m656.152,0.63318l39.227,0l0,27.53882l-39.227,0l0,-27.53882l0,0z" clip-rule="evenodd" fill-rule="evenodd"/>
 </mask>
 <mask height="1" width="1" y="15" x="656" maskUnits="userSpaceOnUse" id="mask1">
  <path id="svg_2" fill="white" d="m656.138,15.361l0,0.6061l0.689,0l0,-0.6061l-0.689,0l0,0z" clip-rule="evenodd" fill-rule="evenodd"/>
 </mask>
 <mask height="2" width="1" y="15" x="656" maskUnits="userSpaceOnUse" id="mask2">
  <path id="svg_3" fill="white" d="m656.138,15.63l0,0.6061l0.689,0l0,-0.6061l-0.689,0l0,0z" clip-rule="evenodd" fill-rule="evenodd"/>
 </mask>
 <g>
  <title>background</title>
  <rect fill="none" id="canvas_background" height="43" width="43" y="-1" x="-1"/>
 </g>
 <g>
  <title>Layer 1</title>
  <g id="svg_46">
   <g id="svg_26" mask="url(#mask0)">
    <path id="svg_27" fill="#4391DB" d="m32.581,0.63287l0.503,0c0.056,0.02 0.115,0.00485 0.172,0.0097l0.104,0c0.561,-0.00182 1.106,0.08727 1.64,0.23212c0.61,0.16606 1.198,0.37818 1.77,0.62546c0.712,0.30666 1.406,0.64424 2.096,0.98606c0.45,0.22303 0.899,0.44727 1.352,0.66545c0.062,0.0303 0.135,0.05152 0.161,0.12061c-0.003,0.05939 -0.052,0.08848 -0.102,0.11454c-0.566,0.28909 -1.133,0.57576 -1.7,0.86425c-0.572,0.29151 -1.146,0.58242 -1.719,0.87333c-0.591,0.3006 -1.184,0.60121 -1.776,0.90121c-0.529,0.26909 -1.057,0.53758 -1.586,0.80667c-0.548,0.27818 -1.096,0.55636 -1.645,0.83394c-0.538,0.27333 -1.075,0.54666 -1.614,0.82c-0.637,0.32242 -1.272,0.64606 -1.908,0.96909c-0.577,0.29273 -1.153,0.5855 -1.729,0.8782c-0.594,0.3024 -1.19,0.6036 -1.785,0.906c-0.573,0.2909 -1.146,0.5813 -1.719,0.8728c-0.591,0.3012 -1.185,0.6012 -1.776,0.9018c-0.529,0.2691 -1.058,0.537 -1.587,0.806c-0.591,0.3013 -1.184,0.6007 -1.775,0.9019c-0.583,0.2963 -1.167,0.5909 -1.748,0.8872c-0.352,0.1794 -0.707,0.3564 -1.058,0.5376c-0.027,0.014 -0.072,0.0176 -0.068,0.0527c0.002,0.0267 0.041,0.0322 0.066,0.0449c0.655,0.3376 1.313,0.6727 1.971,1.0067c0.721,0.3666 1.441,0.7339 2.162,1.1c0.56,0.2842 1.121,0.569 1.679,0.8575c0.081,0.0419 0.163,0.0831 0.248,0.12c0.104,0.0752 0.23,0.1206 0.345,0.1794c0.878,0.4449 1.754,0.8934 2.63,1.3394c0.748,0.38 1.497,0.7606 2.245,1.14c0.058,0.0291 0.108,0.0637 0.15,0.1091c0.027,0.0449 0.019,0.0939 0.019,0.1412c0.001,1.92 0.001,3.8394 0,5.7594c0,0.1927 -0.05,0.2164 -0.244,0.1182c-1.059,-0.537 -2.116,-1.077 -3.174,-1.6139c-1.048,-0.5322 -2.097,-1.0661 -3.145,-1.5988c-0.939,-0.4764 -1.875,-0.9558 -2.814,-1.4322c-0.913,-0.4636 -1.826,-0.9278 -2.739,-1.3921c-0.75,-0.3812 -1.497,-0.7636 -2.247,-1.1448c-0.752,-0.3824 -1.504,-0.7661 -2.256,-1.1479c-0.958,-0.4861 -1.914,-0.9739 -2.872,-1.4606c-0.998,-0.5067 -1.995,-1.0146 -2.993,-1.5218c-0.75,-0.3806 -1.499,-0.7606 -2.247,-1.1449c-0.204,-0.1048 -0.408,-0.2103 -0.615,-0.3109c-0.055,-0.0273 -0.093,-0.06 -0.101,-0.1157c0.013,-0.0661 0.078,-0.0903 0.133,-0.1176c0.726,-0.36 1.446,-0.7279 2.169,-1.0915c0.706,-0.3558 1.413,-0.7134 2.119,-1.0691c0.622,-0.3134 1.244,-0.6273 1.865,-0.94c0.66,-0.3321 1.319,-0.6643 1.978,-0.9982c0.57,-0.2891 1.142,-0.5745 1.714,-0.8624c0.624,-0.31518 1.248,-0.63093 1.873,-0.94488c0.622,-0.31212 1.244,-0.62545 1.865,-0.93939c0.608,-0.30788 1.219,-0.61273 1.826,-0.92121c0.564,-0.28667 1.13,-0.5703 1.695,-0.85455c0.578,-0.2903 1.153,-0.58363 1.732,-0.87272c0.572,-0.28606 1.141,-0.57637 1.713,-0.86303c0.572,-0.28667 1.142,-0.57455 1.713,-0.86364c0.52,-0.26303 1.042,-0.52364 1.562,-0.78606c0.404,-0.20364 0.805,-0.41152 1.212,-0.6103c0.582,-0.28546 1.175,-0.55031 1.777,-0.80061c0.62,-0.25697 1.253,-0.48303 1.904,-0.67091c0.532,-0.15333 1.073,-0.28121 1.63,-0.34788c0.259,-0.03151 0.521,-0.03272 0.783,-0.03515c0.056,-0.00545 0.112,0.01152 0.166,-0.0097z" clip-rule="evenodd" fill-rule="evenodd"/>
   </g>
   <path id="svg_28" fill="#90BDE9" d="m1.161,15.2294c0.016,0.0321 0.051,0.0448 0.082,0.0612c1.981,1.0079 3.963,2.0157 5.943,3.0236c2.08,1.0582 4.159,2.1158 6.237,3.1734c1.658,0.843 3.314,1.686 4.971,2.5291c1.881,0.9563 3.762,1.9115 5.643,2.8678c0.797,0.4055 1.593,0.8122 2.39,1.2182c0.114,0.0582 0.124,0.0546 0.124,-0.0594c0,-1.9812 -0.001,-3.9624 -0.001,-5.943c-0.023,-0.0576 -0.029,-0.1176 -0.029,-0.1788l0,-5.1915c0,-0.0412 0,-0.083 0.008,-0.1243c-0.014,-0.0697 0.037,-0.1042 0.096,-0.1351c0.67,-0.3461 1.336,-0.697 2.005,-1.0461c0.756,-0.3945 1.511,-0.7891 2.267,-1.1836c0.559,-0.2921 1.116,-0.5867 1.679,-0.8733c0.057,-0.0291 0.131,-0.0934 0.188,0.0078c0.005,0.0516 0.003,0.1031 0.003,0.154c0,8.426 0,16.8521 -0.001,25.2788c0,0.06 0.011,0.1212 -0.01,0.1806c-0.075,0.0642 -0.147,0.0133 -0.207,-0.0158c-0.236,-0.1145 -0.466,-0.2363 -0.7,-0.3551c-0.623,-0.3158 -1.246,-0.6358 -1.868,-0.9528c-0.507,-0.2581 -1.013,-0.5175 -1.52,-0.7757c-0.622,-0.3182 -1.245,-0.6358 -1.869,-0.9527c-0.502,-0.2564 -1.006,-0.5146 -1.509,-0.771c-0.626,-0.3193 -1.252,-0.6387 -1.878,-0.9581c-0.504,-0.2564 -1.007,-0.514 -1.511,-0.7709c-0.625,-0.3188 -1.251,-0.6382 -1.877,-0.9576c-0.504,-0.257 -1.007,-0.514 -1.51,-0.7709c-0.626,-0.3194 -1.252,-0.6388 -1.878,-0.9582c-0.503,-0.2564 -1.006,-0.5133 -1.51,-0.7709c-0.66,-0.3376 -1.321,-0.674 -1.981,-1.0115c-0.557,-0.2843 -1.113,-0.5685 -1.67,-0.8522c-0.623,-0.3175 -1.246,-0.6357 -1.869,-0.9533c-0.481,-0.2448 -0.958,-0.4976 -1.445,-0.7351c-0.646,-0.3158 -1.27,-0.6625 -1.883,-1.0243c-0.564,-0.3339 -1.108,-0.6921 -1.628,-1.0782c-0.357,-0.2648 -0.693,-0.5491 -1.01,-0.8485c-0.543,-0.5127 -1.01,-1.0745 -1.359,-1.706c-0.328,-0.5933 -0.547,-1.2182 -0.677,-1.8673c-0.071,-0.3521 -0.121,-0.7067 -0.158,-1.063c-0.054,-0.5164 -0.063,-1.0334 -0.07,-1.5509c-0.006,-0.4825 -0.021,-0.9649 -0.021,-1.4479l0,-0.2109c-0.005,-0.0897 0.015,-0.18 -0.01,-0.2691l0,-0.1339c0.009,-0.0067 0.016,-0.0061 0.023,0.0024z" clip-rule="evenodd" fill-rule="evenodd"/>
   <path id="svg_29" fill="#AAC5E1" d="m32.78,39.0226c0.001,0.0048 0.001,0.0103 -0.002,0.0145l-0.044,0c-0.007,-0.0115 -0.016,-0.0236 -0.024,-0.0357c0.037,-0.0431 0.024,-0.0928 0.024,-0.1394c0.001,-1.0946 0,-2.1885 0,-3.2825l0,-22.0654c0,-0.0576 -0.001,-0.1152 -0.002,-0.1728c0.006,-0.0151 0.017,-0.0193 0.033,-0.0103c0.033,0.0213 0.036,0.0534 0.039,0.0855c0.006,0.0739 0.003,0.1473 0.003,0.2206l0,25.1006c0,0.0958 0.008,0.1915 -0.027,0.2849z" clip-rule="evenodd" fill-rule="evenodd"/>
   <g id="svg_30" mask="url(#mask1)">
    <path id="svg_31" fill="#B7D4F1" d="m1.138,15.361c0.042,0.0885 0.016,0.18 0.019,0.2709c-0.008,0.0122 -0.014,0.0115 -0.019,-0.0018l0,-0.2691z" clip-rule="evenodd" fill-rule="evenodd"/>
   </g>
   <g id="svg_32" mask="url(#mask2)">
    <path id="svg_33" fill="#E4EFFA" d="m1.138,15.63c0.007,0.0006 0.013,0.0012 0.019,0.0018c-0.001,0.0764 -0.001,0.1528 -0.001,0.2297c-0.006,0 -0.012,-0.0006 -0.018,-0.0012l0,-0.2303z" clip-rule="evenodd" fill-rule="evenodd"/>
   </g>
   <path id="svg_34" fill="#95C1EB" d="m32.403,0.64894c0.001,-0.00546 0.002,-0.01091 0.004,-0.01576l0.174,0c-0.056,0.02727 -0.117,0.02121 -0.178,0.01576z" clip-rule="evenodd" fill-rule="evenodd"/>
   <path id="svg_35" fill="#97C2EB" d="m33.261,0.64894c-0.06,0.00303 -0.121,0.01091 -0.178,-0.01576l0.176,0c0.015,0.00364 0.016,0.00909 0.002,0.01576z" clip-rule="evenodd" fill-rule="evenodd"/>
   <path id="svg_36" fill="#CBE0F5" d="m33.261,0.64894l-0.002,-0.01576l0.109,0c0,0.00485 0,0.01091 0.001,0.01576c-0.037,0 -0.072,0 -0.108,0z" clip-rule="evenodd" fill-rule="evenodd"/>
   <path id="svg_37" fill="#1A568D" d="m32.78,39.0226c-0.046,-0.04 -0.022,-0.0909 -0.022,-0.1358c-0.002,-7.5393 -0.002,-15.0781 -0.002,-22.6169c0,-0.9437 0,-1.8879 -0.002,-2.8315c0,-0.0316 0.03,-0.0728 -0.022,-0.097c-0.445,0.2303 -0.89,0.46 -1.334,0.6915c-1.609,0.8382 -3.217,1.6776 -4.825,2.517c-0.009,0.0042 -0.016,0.0115 -0.024,0.0176c-0.01,0.0503 -0.051,0.0733 -0.097,0.0969c-0.532,0.2806 -1.068,0.5582 -1.601,0.8376c-0.793,0.4145 -1.589,0.8273 -2.381,1.2424c-0.368,0.1927 -0.736,0.3879 -1.107,0.577c-0.052,0.0267 -0.104,0.0612 -0.172,0.0364c-0.185,-0.0534 -0.34,-0.1564 -0.506,-0.2407c-1.865,-0.9478 -3.728,-1.8987 -5.592,-2.8484c-0.04,-0.0212 -0.081,-0.0425 -0.137,-0.0728c0.189,-0.0963 0.366,-0.1878 0.543,-0.2775c1.585,-0.8049 3.169,-1.6103 4.754,-2.4146c1.796,-0.9121 3.593,-1.8224 5.389,-2.7345c2.794,-1.41882 5.589,-2.83882 8.383,-4.25761c2.073,-1.05272 4.146,-2.10424 6.22,-3.15757c0.04,-0.02 0.086,-0.03455 0.114,-0.07031c0.046,0.03273 0.021,0.07697 0.021,0.11516c0.002,5.40545 0.002,10.81093 0.002,16.21573c0,2.9188 0.001,5.8376 -0.002,8.7564c0,1.0309 -0.057,2.06 -0.22,3.0818c-0.155,0.9721 -0.409,1.9206 -0.893,2.8127c-0.451,0.8303 -1.089,1.5303 -1.882,2.1273c-0.779,0.5873 -1.647,1.0618 -2.52,1.5303c-0.692,0.3715 -1.4,0.7194 -2.085,1.0994z" clip-rule="evenodd" fill-rule="evenodd"/>
  </g>
 </g>
</svg>