<svg width="41" height="41" xmlns="http://www.w3.org/2000/svg">

 <mask height="29" width="40" y="0" x="656" maskUnits="userSpaceOnUse" id="mask0">
  <path id="svg_1" fill="white" d="m656.152,0.63318l39.227,0l0,27.53882l-39.227,0l0,-27.53882l0,0z" clip-rule="evenodd" fill-rule="evenodd"/>
 </mask>
 <mask height="1" width="1" y="15" x="656" maskUnits="userSpaceOnUse" id="mask1">
  <path id="svg_2" fill="white" d="m656.138,15.361l0,0.6061l0.689,0l0,-0.6061l-0.689,0l0,0z" clip-rule="evenodd" fill-rule="evenodd"/>
 </mask>
 <mask height="2" width="1" y="15" x="656" maskUnits="userSpaceOnUse" id="mask2">
  <path id="svg_3" fill="white" d="m656.138,15.63l0,0.6061l0.689,0l0,-0.6061l-0.689,0l0,0z" clip-rule="evenodd" fill-rule="evenodd"/>
 </mask>
 <g>
  <title>background</title>
  <rect fill="none" id="canvas_background" height="43" width="43" y="-1" x="-1"/>
 </g>
 <g>
  <title>Layer 1</title>
  <g id="svg_30" mask="url(#mask1)">
   <path id="svg_31" fill="#B7D4F1" d="m656.138,15.361c0.042,0.0885 0.016,0.18 0.019,0.2709c-0.008,0.0122 -0.014,0.0115 -0.019,-0.0018l0,-0.2691z" clip-rule="evenodd" fill-rule="evenodd"/>
  </g>
  <g id="svg_32" mask="url(#mask2)">
   <path id="svg_33" fill="#E4EFFA" d="m656.138,15.63c0.007,0.0006 0.013,0.0012 0.019,0.0018c-0.001,0.0764 -0.001,0.1528 -0.001,0.2297c-0.006,0 -0.012,-0.0006 -0.018,-0.0012l0,-0.2303z" clip-rule="evenodd" fill-rule="evenodd"/>
  </g>
  <path id="svg_34" fill="#95C1EB" d="m687.403,0.64894c0.001,-0.00546 0.002,-0.01091 0.004,-0.01576l0.174,0c-0.056,0.02727 -0.117,0.02121 -0.178,0.01576z" clip-rule="evenodd" fill-rule="evenodd"/>
  <path id="svg_35" fill="#97C2EB" d="m688.261,0.64894c-0.06,0.00303 -0.121,0.01091 -0.178,-0.01576l0.176,0c0.015,0.00364 0.016,0.00909 0.002,0.01576z" clip-rule="evenodd" fill-rule="evenodd"/>
  <path id="svg_36" fill="#CBE0F5" d="m688.261,0.64894l-0.002,-0.01576l0.109,0c0,0.00485 0,0.01091 0.001,0.01576c-0.037,0 -0.072,0 -0.108,0z" clip-rule="evenodd" fill-rule="evenodd"/>
  <g id="svg_46">
   <path id="svg_15" fill="#C0C0C0" d="m1.375,20.25c-0.062,10.9375 8.75,19.75 19.75,19.8125c10.875,0.0625 19.75,-8.75 19.875,-19.6875c0.063,-10.93754 -8.75,-19.81254 -19.75,-19.87504c-10.937,-0.0625 -19.875,8.75 -19.875,19.75004zm19.75,-17.87504c9.938,0 17.938,8.00004 17.938,17.93754c0,9.875 -8,17.875 -17.875,17.875c-9.938,0 -17.938,-8 -17.938,-17.9375c0,-9.875 8,-17.87504 17.875,-17.87504z" clip-rule="evenodd" fill-rule="evenodd"/>
   <path id="svg_16" fill="#C0C0C0" d="m21.062,35.4999c8.376,0.0625 15.188,-6.75 15.313,-15.1875c0,-8.375 -6.75,-15.18745 -15.188,-15.24995c-8.312,-0.0625 -15.125,6.62495 -15.25,15.06245c-0.125,8.375 6.625,15.25 15.125,15.375zm-0.874,-9.9374l0,0.1875c1.687,0.0312 3.359,0.0625 5.031,0.0937c1.672,0.0313 3.344,0.0625 5.031,0.0938c-0.055,0.2212 -0.098,0.4303 -0.14,0.6325c-0.053,0.2547 -0.103,0.4986 -0.172,0.7425c-0.188,0.5625 -0.375,1.1875 -0.5,1.8125c-0.063,0.3125 -0.188,0.375 -0.5,0.375l-12.5,0l-3.625,0c0.562,-2.125 1.125,-4.25 1.687,-6.4375c-0.875,0.3125 -1.625,0.625 -2.5,1c0.219,-0.6556 0.407,-1.2806 0.585,-1.875c0.077,-0.2557 0.152,-0.5057 0.228,-0.75c0,-0.0469 0.105,-0.0938 0.21,-0.1407c0.036,-0.0156 0.071,-0.0312 0.102,-0.0468c0.281,-0.125 0.578,-0.2344 0.875,-0.3438c0.297,-0.1094 0.594,-0.2187 0.875,-0.3437c0.125,-0.0625 0.313,-0.25 0.375,-0.4375l2.625,-9.75c0.125,-0.37505 0.25,-0.50005 0.625,-0.50005l5.25,0l0.438,0c-0.464,1.76925 -0.899,3.48165 -1.344,5.23305c-0.215,0.8471 -0.432,1.7033 -0.656,2.5795c1,-0.375 1.937,-0.75 3,-1.1875c-0.05,0.1983 -0.109,0.3868 -0.167,0.5694c-0.088,0.2777 -0.171,0.5416 -0.208,0.8056c-0.125,1 -0.688,1.5625 -1.688,1.8125c-0.437,0.125 -0.875,0.3125 -1.312,0.5c-0.188,0.0625 -0.313,0.25 -0.375,0.375c-0.219,0.8437 -0.422,1.6718 -0.625,2.5c-0.204,0.8281 -0.407,1.6562 -0.625,2.5z" clip-rule="evenodd" fill-rule="evenodd"/>
   <path id="svg_17" fill="white" d="m20.188,25.7499c3.374,0.0625 6.687,0.125 10.062,0.25c-0.125,0.5 -0.25,0.9375 -0.312,1.375c-0.188,0.625 -0.376,1.1875 -0.5,1.8125c-0.063,0.3125 -0.188,0.375 -0.5,0.375c-4.188,0 -8.313,0 -12.5,0c-1.188,0 -2.376,0 -3.626,0c0.563,-2.1875 1.126,-4.25 1.688,-6.4375c-0.875,0.3125 -1.625,0.625 -2.5,1c0.25,-0.9375 0.5,-1.75 0.812,-2.625c0,-0.125 0.188,-0.1875 0.313,-0.1875c0.563,-0.25 1.187,-0.4375 1.75,-0.6875c0.187,-0.0625 0.375,-0.25 0.375,-0.4375c0.875,-3.25 1.75,-6.5 2.625,-9.75c0.063,-0.375 0.187,-0.49996 0.625,-0.49996c1.75,0 3.5,0 5.25,0c0.125,0 0.25,0 0.438,0c-0.688,2.56246 -1.313,5.12496 -2,7.81246c1,-0.4375 1.937,-0.8125 3,-1.1875c-0.126,0.5 -0.313,0.9375 -0.376,1.375c-0.124,1 -0.687,1.5625 -1.687,1.8125c-0.437,0.125 -0.875,0.3125 -1.313,0.5c-0.124,0.0625 -0.312,0.25 -0.374,0.375c-0.438,1.6875 -0.876,3.3125 -1.25,5c0,0 0,0.0625 0,0.125z"/>
  </g>
 </g>
</svg>