<svg width="40" height="40" xmlns="http://www.w3.org/2000/svg">

 <mask height="29" width="40" y="0" x="656" maskUnits="userSpaceOnUse" id="mask0">
  <path id="svg_1" fill="white" d="m656.152,0.63318l39.227,0l0,27.53882l-39.227,0l0,-27.53882l0,0z" clip-rule="evenodd" fill-rule="evenodd"/>
 </mask>
 <mask height="1" width="1" y="15" x="656" maskUnits="userSpaceOnUse" id="mask1">
  <path id="svg_2" fill="white" d="m656.138,15.361l0,0.6061l0.689,0l0,-0.6061l-0.689,0l0,0z" clip-rule="evenodd" fill-rule="evenodd"/>
 </mask>
 <mask height="2" width="1" y="15" x="656" maskUnits="userSpaceOnUse" id="mask2">
  <path id="svg_3" fill="white" d="m656.138,15.63l0,0.6061l0.689,0l0,-0.6061l-0.689,0l0,0z" clip-rule="evenodd" fill-rule="evenodd"/>
 </mask>
 <g>
  <title>background</title>
  <rect fill="none" id="canvas_background" height="42" width="42" y="-1" x="-1"/>
 </g>
 <g>
  <title>Layer 1</title>
  <g id="svg_30" mask="url(#mask1)">
   <path id="svg_31" fill="#B7D4F1" d="m656.138,15.361c0.042,0.0885 0.016,0.18 0.019,0.2709c-0.008,0.0122 -0.014,0.0115 -0.019,-0.0018l0,-0.2691z" clip-rule="evenodd" fill-rule="evenodd"/>
  </g>
  <g id="svg_32" mask="url(#mask2)">
   <path id="svg_33" fill="#E4EFFA" d="m656.138,15.63c0.007,0.0006 0.013,0.0012 0.019,0.0018c-0.001,0.0764 -0.001,0.1528 -0.001,0.2297c-0.006,0 -0.012,-0.0006 -0.018,-0.0012l0,-0.2303z" clip-rule="evenodd" fill-rule="evenodd"/>
  </g>
  <path id="svg_34" fill="#95C1EB" d="m687.403,0.64894c0.001,-0.00546 0.002,-0.01091 0.004,-0.01576l0.174,0c-0.056,0.02727 -0.117,0.02121 -0.178,0.01576z" clip-rule="evenodd" fill-rule="evenodd"/>
  <path id="svg_35" fill="#97C2EB" d="m688.261,0.64894c-0.06,0.00303 -0.121,0.01091 -0.178,-0.01576l0.176,0c0.015,0.00364 0.016,0.00909 0.002,0.01576z" clip-rule="evenodd" fill-rule="evenodd"/>
  <path id="svg_36" fill="#CBE0F5" d="m688.261,0.64894l-0.002,-0.01576l0.109,0c0,0.00485 0,0.01091 0.001,0.01576c-0.037,0 -0.072,0 -0.108,0z" clip-rule="evenodd" fill-rule="evenodd"/>
  <g id="svg_46">
   <g id="svg_47">
    <path stroke="null" id="svg_6" fill="#8A92B2" d="m20.063,0.5c0,0.125 0,0.25 0,0.375c0,4.625 0,9.3125 0,13.9375c0,0.0625 0,0.1875 0,0.25c0,0.0625 -0.063,0.125 -0.125,0.125c-0.438,0.1875 -0.813,0.375 -1.25,0.5625c-0.563,0.25 -1.188,0.5 -1.75,0.8125c-0.688,0.3125 -1.375,0.625 -2.063,0.9375c-0.562,0.25 -1.125,0.5 -1.687,0.75c-0.688,0.3125 -1.375,0.625 -2.063,0.9375c-0.562,0.25 -1.125,0.5 -1.75,0.8125c-0.437,0.1875 -0.937,0.4375 -1.375,0.625c-0.062,0 -0.062,0.0625 -0.125,0c0,0 0,0 -0.063,0c0.188,-0.3125 0.376,-0.5625 0.563,-0.875c1,-1.6875 2.063,-3.375 3.063,-5.0625c1.062,-1.8125 2.187,-3.625 3.25,-5.4375c1,-1.6875 2,-3.375 3,-5c0.75,-1.25 1.5,-2.4375 2.187,-3.6875c0.125,0 0.125,-0.0625 0.188,-0.0625c-0.063,0 0,0 0,0z"/>
    <path id="svg_7" fill="#454A75" d="m32.188,20.625c-0.938,0.625 -1.938,1.1875 -2.876,1.75c-3.062,1.8125 -6.062,3.5625 -9.124,5.375c-0.063,0 -0.063,0.0625 -0.126,0.0625c-0.062,0 -0.062,-0.0625 -0.062,-0.0625c0,-0.0625 0,-0.125 0,-0.1875c0,-4.0625 0,-8.125 0,-12.1875c0,-0.0625 0,-0.125 0,-0.1875c0,-0.0625 0.062,-0.0625 0.125,-0.0625c0.25,0.125 0.5,0.25 0.813,0.375c0.75,0.375 1.562,0.6875 2.312,1.0625c0.688,0.3125 1.312,0.625 2,0.875c0.688,0.3125 1.312,0.625 2,0.9375c0.562,0.25 1.188,0.5 1.75,0.8125c0.562,0.25 1.188,0.5 1.75,0.8125c0.438,0.1875 0.875,0.4375 1.375,0.625c0,-0.0625 0,0 0.063,0z"/>
    <path id="svg_8" fill="#8A92B2" d="m20.062,40.0625c0,0 -0.062,0 0,0c-0.062,0 -0.062,0 -0.124,-0.0625c-1.25,-1.75 -2.438,-3.4375 -3.688,-5.1875c-1.25,-1.75 -2.5,-3.5 -3.75,-5.25c-1.188,-1.6875 -2.438,-3.375 -3.625,-5.125c-0.313,-0.4375 -0.625,-0.875 -0.937,-1.3125c0,-0.0625 -0.063,-0.0625 -0.063,-0.125c0.063,0 0.063,0.0625 0.125,0.0625c1.688,1 3.437,2 5.125,3c1.937,1.1875 3.937,2.3125 5.875,3.5c0.312,0.1875 0.688,0.375 1,0.5625c0.062,0 0.062,0.0625 0.062,0.125c0,0.0625 0,0.125 0,0.1875c0,3.125 0,6.1875 0,9.3125c0,0.0625 0,0.1875 0,0.3125z"/>
    <path id="svg_9" fill="#808080" d="m7.875,20.625c0,0 0.063,0 0,0c0.063,0 0.063,0 0,0c0,0.0625 0,0.0625 0,0z"/>
    <path id="svg_10" fill="#62688F" d="m7.938,20.6875c0,-0.0625 0,-0.0625 0,0c0.624,-0.3125 1.25,-0.5625 1.874,-0.875c0.813,-0.375 1.626,-0.75 2.438,-1.125c0.625,-0.3125 1.25,-0.5625 1.875,-0.875c0.875,-0.4375 1.813,-0.8125 2.687,-1.25c0.626,-0.25 1.25,-0.5625 1.876,-0.8125c0.437,-0.1875 0.874,-0.375 1.312,-0.625c0.062,0 0.062,-0.0625 0.125,-0.0625c0,0 0,0 0,0.0625c0,0.0625 0,0.0625 0,0.125c0,4.125 0,8.25 0,12.375c0,0.0625 0,0.125 0,0.1875c-0.063,0.0625 -0.063,0 -0.125,0c-0.188,-0.125 -0.375,-0.1875 -0.5,-0.3125c-3.812,-2.25 -7.625,-4.5 -11.438,-6.75c-0.062,-0.0625 -0.124,-0.0625 -0.124,-0.0625z"/>
    <path id="svg_11" fill="#62688F" d="m32.125,23c0,0.0625 0,0.0625 -0.063,0.125c-3.624,5.125 -7.25,10.1875 -10.874,15.3125c-0.376,0.5625 -0.75,1.0625 -1.126,1.625c0,0 0,0 0,-0.0625c0,-0.0625 0,-0.0625 0,-0.125c0,-3.1875 0,-6.375 0,-9.5625c0,-0.0625 0,-0.125 0,-0.1875c0.813,-0.5 1.626,-1 2.438,-1.4375c3.188,-1.875 6.375,-3.75 9.562,-5.625c0.001,-0.0625 0.063,-0.0625 0.063,-0.0625z"/>
    <path id="svg_12" fill="#62688F" d="m20.062,15.125c0,-0.0625 0,-0.125 0,-0.125c0,-4.75 0,-9.5625 0,-14.3125c0,-0.0625 0,-0.125 0,-0.125c4,6.625 8,13.25 12,19.875c0.063,0.0625 0.126,0.125 0.126,0.1875c-0.25,-0.125 -0.5,-0.25 -0.813,-0.375c-0.313,-0.125 -0.625,-0.3125 -0.937,-0.4375c-0.188,-0.0625 -0.376,-0.1875 -0.626,-0.25c-0.312,-0.125 -0.687,-0.3125 -1,-0.4375c-0.187,-0.0625 -0.374,-0.1875 -0.562,-0.25c-0.437,-0.1875 -0.875,-0.375 -1.312,-0.5625c-0.25,-0.125 -0.438,-0.1875 -0.688,-0.3125c-0.312,-0.125 -0.625,-0.3125 -0.938,-0.4375c-0.187,-0.0625 -0.374,-0.1875 -0.562,-0.25c-0.438,-0.1875 -0.875,-0.375 -1.312,-0.5625c-0.25,-0.125 -0.438,-0.1875 -0.688,-0.3125c-0.312,-0.125 -0.625,-0.3125 -0.938,-0.4375c-0.187,-0.125 -0.437,-0.1875 -0.624,-0.3125c-0.376,-0.1875 -0.75,-0.375 -1.126,-0.5625z"/>
   </g>
  </g>
 </g>
</svg>