<svg width="40" height="40" xmlns="http://www.w3.org/2000/svg">

 <mask height="29" width="40" y="0" x="656" maskUnits="userSpaceOnUse" id="mask0">
  <path id="svg_1" fill="white" d="m656.152,0.63318l39.227,0l0,27.53882l-39.227,0l0,-27.53882l0,0z" clip-rule="evenodd" fill-rule="evenodd"/>
 </mask>
 <mask height="1" width="1" y="15" x="656" maskUnits="userSpaceOnUse" id="mask1">
  <path id="svg_2" fill="white" d="m656.138,15.361l0,0.6061l0.689,0l0,-0.6061l-0.689,0l0,0z" clip-rule="evenodd" fill-rule="evenodd"/>
 </mask>
 <mask height="2" width="1" y="15" x="656" maskUnits="userSpaceOnUse" id="mask2">
  <path id="svg_3" fill="white" d="m656.138,15.63l0,0.6061l0.689,0l0,-0.6061l-0.689,0l0,0z" clip-rule="evenodd" fill-rule="evenodd"/>
 </mask>
 <g>
  <title>background</title>
  <rect fill="none" id="canvas_background" height="42" width="42" y="-1" x="-1"/>
 </g>
 <g>
  <title>Layer 1</title>
  <g id="svg_46">
   <path id="svg_38" fill="#F8BF1A" d="m20.125,40.0625c10.942,0 19.813,-8.8704 19.813,-19.8125c0,-10.94214 -8.871,-19.8125 -19.813,-19.8125c-10.9421,0 -19.8125,8.87036 -19.8125,19.8125c0,10.9421 8.8704,19.8125 19.8125,19.8125z"/>
   <path id="svg_39" fill="white" d="m9.125,26.125l0,5.25c0.1875,0 0.3125,0 0.5,0.0625l12.3125,0c0.0517,-0.0052 0.1039,-0.0103 0.1564,-0.0156c0.582,-0.0577 1.2078,-0.1197 1.7811,-0.2344c3.625,-0.8125 5.75,-3.125 6.75,-6.5625c0.75,-2.625 0.75,-5.3125 0.125,-7.9375c-0.375,-1.5625 -1.062,-2.9375 -2.062,-4.125c-1.126,-1.375 -2.563,-2.3125 -4.188,-2.9375c-0.8125,-0.3125 -1.6875,-0.5625 -2.5625,-0.5625l-12.375,0l-0.4375,0l0,5.0625l3.0625,0l0,12l-3.0625,0zm10,0.0139c-0.2291,-0.0069 -0.4583,-0.0139 -0.6875,-0.0139l0,-12c0.2479,0 0.5008,-0.01 0.7558,-0.0201c0.6453,-0.0256 1.3046,-0.0518 1.9317,0.0826c0.5625,0.0625 1.0625,0.5625 1.4375,1c0.625,0.75 1.125,1.6875 1.3125,2.6875c0.375,1.6875 0.5625,3.375 0.0625,5.0625c-0.25,0.75 -0.6875,1.4375 -1.1875,2.0625c-0.5625,0.75 -1.375,1.0625 -2.25,1.125c-0.4583,0.0417 -0.9166,0.0278 -1.375,0.0139z" clip-rule="evenodd" fill-rule="evenodd"/>
  </g>
 </g>
</svg>