<svg width="41" height="41" xmlns="http://www.w3.org/2000/svg">

 <mask height="29" width="40" y="0" x="656" maskUnits="userSpaceOnUse" id="mask0">
  <path id="svg_1" fill="white" d="m656.152,0.63318l39.227,0l0,27.53882l-39.227,0l0,-27.53882l0,0z" clip-rule="evenodd" fill-rule="evenodd"/>
 </mask>
 <mask height="1" width="1" y="15" x="656" maskUnits="userSpaceOnUse" id="mask1">
  <path id="svg_2" fill="white" d="m656.138,15.361l0,0.6061l0.689,0l0,-0.6061l-0.689,0l0,0z" clip-rule="evenodd" fill-rule="evenodd"/>
 </mask>
 <mask height="2" width="1" y="15" x="656" maskUnits="userSpaceOnUse" id="mask2">
  <path id="svg_3" fill="white" d="m656.138,15.63l0,0.6061l0.689,0l0,-0.6061l-0.689,0l0,0z" clip-rule="evenodd" fill-rule="evenodd"/>
 </mask>
 <g>
  <title>background</title>
  <rect fill="none" id="canvas_background" height="43" width="43" y="-1" x="-1"/>
 </g>
 <g>
  <title>Layer 1</title>
  <path id="svg_9" fill="#808080" d="m153.875,20.625c0,0 0.063,0 0,0c0.063,0 0.063,0 0,0c0,0.0625 0,0.0625 0,0z"/>
  <path id="svg_34" fill="#95C1EB" d="m687.403,0.64894c0.001,-0.00546 0.002,-0.01091 0.004,-0.01576l0.174,0c-0.056,0.02727 -0.117,0.02121 -0.178,0.01576z" clip-rule="evenodd" fill-rule="evenodd"/>
  <path id="svg_35" fill="#97C2EB" d="m688.261,0.64894c-0.06,0.00303 -0.121,0.01091 -0.178,-0.01576l0.176,0c0.015,0.00364 0.016,0.00909 0.002,0.01576z" clip-rule="evenodd" fill-rule="evenodd"/>
  <path id="svg_36" fill="#CBE0F5" d="m688.261,0.64894l-0.002,-0.01576l0.109,0c0,0.00485 0,0.01091 0.001,0.01576c-0.037,0 -0.072,0 -0.108,0z" clip-rule="evenodd" fill-rule="evenodd"/>
  <g id="svg_46">
   <path id="svg_42" fill="#1276A7" d="m20,40.0625c10.942,0 19.812,-8.8704 19.812,-19.8125c0,-10.94214 -8.87,-19.8125 -19.812,-19.8125c-10.942,0 -19.812,8.87036 -19.812,19.8125c0,10.9421 8.87,19.8125 19.812,19.8125z"/>
   <path id="svg_43" fill="#FEFEFE" d="m25.437,22.375c-0.625,-0.1875 -1.25,-0.25 -1.812,-0.25c-0.563,0.0625 -1.188,-0.1875 -1.5,-0.6875l-0.188,-0.25c-0.375,-0.5625 -0.375,-1.25 0,-1.8125l0.188,-0.3125c0.312,-0.4375 0.812,-0.6875 1.375,-0.6875c0.687,0 1.375,-0.125 2.062,-0.5c1.688,-0.875 2.813,-2.5625 2.75,-4.4375c-0.062,-2.6875 -2.312,-4.8125 -5.062,-4.6875c-2.313,0.125 -4.25,2 -4.5,4.3125c-0.125,1.25 0.25,2.375 0.875,3.3125c0.375,0.5625 0.375,1.3125 0,1.875l-0.063,0.0625c-0.312,0.4375 -0.812,0.6875 -1.312,0.6875l-0.313,0c-0.625,0 -1.187,-0.375 -1.437,-0.9375c-0.813,-1.625 -2.5,-2.6875 -4.438,-2.625c-2.5,0.0625 -4.562,2.125 -4.625,4.625c-0.125,2.75 2.063,5 4.813,5c1.875,0 3.5,-1.0625 4.25,-2.625c0.25,-0.5625 0.812,-0.9375 1.437,-0.9375l0.25,0c0.563,0 1.063,0.25 1.313,0.6875l0.312,0.4375c0.375,0.5 0.313,1.1875 0,1.6875c-0.562,0.875 -0.812,1.875 -0.687,3c0.187,2.25 2.062,4.0625 4.25,4.3125c3.062,0.3125 5.562,-2.25 5.312,-5.25c-0.125,-1.8125 -1.437,-3.4375 -3.25,-4z"/>
  </g>
 </g>
</svg>