<?xml version="1.0" encoding="utf-8"?>
<!-- Generator: Adobe Illustrator 15.0.0, SVG Export Plug-In . SVG Version: 6.00 Build 0)  -->
<!DOCTYPE svg PUBLIC "-//W3C//DTD SVG 1.1//EN" "http://www.w3.org/Graphics/SVG/1.1/DTD/svg11.dtd">
<svg version="1.1" id="Layer_1" xmlns="http://www.w3.org/2000/svg" xmlns:xlink="http://www.w3.org/1999/xlink" x="0px" y="0px"
	 width="42.877px" height="42.877px" viewBox="0 0 42.877 42.877" enable-background="new 0 0 42.877 42.877" xml:space="preserve">
<path fill="#3ABFBA" d="M3961.573,3892.625v3.938h22.219v-3.938H3961.573z M3968.088,3895.656h-1.165v-2.156h1.165V3895.656z
	 M3979.134,3895.656h-1.164v-2.156h1.164V3895.656z"/>
<g>
	<path fill="#3ABFBA" d="M3964.761,3912.75c-1.344-0.781-2.469-9.141-3.188-15.469v19.188h22.219v-3.713
		C3977.526,3912.766,3965.087,3912.779,3964.761,3912.75z"/>
</g>
<path fill="#3ABFBA" d="M3983.792,3897.281c0,0,2.688,11.938,4.156,14.031c0.125,0.25,0.125,0.25,0.125,0.25s-22.359,0.203-22.563,0
	c-0.844-0.594-3-9.281-3.938-14.281C3963.573,3897.281,3983.792,3897.281,3983.792,3897.281z"/>
<g>
	<path fill="#3ABFBA" d="M34.82,1.876H2.333v5.757H34.82V1.876z M11.859,6.308h-1.704V3.155h1.704V6.308z M28.01,6.308h-1.702V3.155
		h1.702V6.308z"/>
	<path fill="#3ABFBA" d="M41.082,29.504c0,0,0,0-0.183-0.365c-2.147-3.061-6.077-20.516-6.077-20.516s-29.563,0-32.489,0
		c1.372,7.311,4.524,20.014,5.758,20.881C8.39,29.801,41.082,29.504,41.082,29.504z"/>
	<path fill="#3ABFBA" d="M6.996,31.24C5.03,30.098,3.385,17.875,2.333,8.623v28.055H34.82V31.25
		C25.659,31.264,7.472,31.283,6.996,31.24z"/>
</g>
</svg>
